<svg width="731" height="901" viewBox="0 0 731 901" fill="none" xmlns="http://www.w3.org/2000/svg">
<path opacity="0.07" d="M0.999902 453.5C13.6999 446.1 22.8999 445.9 28.5999 452.9C34.2999 459.8 37.0999 471.5 37.0999 488V576.9C37.0999 593.8 38.6999 607.8 41.7999 618.9C44.8999 630.4 50.1999 638.6 57.4999 643.4C64.5999 648.3 74.1999 649.6 86.3999 647.3C98.2999 645.1 113.2 638.9 131 628.6L139.5 623.7V553.7L128.9 559.8C116.2 567.2 107.7 568.1 103.4 562.7C98.8999 557.5 96.5999 546.6 96.5999 530.1V451.8C96.5999 431.4 94.5999 415.3 90.5999 403.4C86.5999 391.6 78.6999 384 66.7999 380.6C78.6999 363.5 86.5999 346.8 90.5999 330.4C94.5999 314 96.4999 295.6 96.4999 275.2V196.9C96.4999 180.4 98.7999 167 103.3 156.5C107.5 146.2 116 137.4 128.8 130L139.4 123.9V53.8999L130.9 58.7999C113 69.1999 98.0999 80.0999 86.2999 91.6999C74.0999 103.4 64.4999 115.9 57.3999 129C49.9999 142.3 44.7999 156.5 41.6999 171.6C38.5999 186.3 36.9999 202.1 36.9999 219V307.9C36.9999 324.4 34.1999 339.4 28.4999 352.8C22.7999 366.3 13.5999 376.7 0.899902 384L0.999902 453.5Z" fill="url(#paint0_linear)"/>
<path opacity="0.07" d="M323.5 196C310.8 203.4 301.6 203.6 295.9 196.6C290.2 189.7 287.4 178 287.4 161.5V72.6C287.4 55.7 285.8 41.7 282.7 30.6C279.6 19.1 274.5 10.8 267.4 5.90003C260 1.10003 250.4 -0.199967 238.5 2.00003C226.3 4.30003 211.3 10.6 193.5 20.9L185 25.8V95.8L195.6 89.7C208.3 82.3 217 81.3 221.5 86.5C225.7 91.9 227.9 102.8 227.9 119.3V197.6C227.9 218 229.9 234.1 233.9 246C237.9 257.8 245.8 265.4 257.7 268.8C245.8 285.9 237.9 302.6 233.9 319C229.9 335.4 228 353.8 228 374.2V452.5C228 469 225.9 482.4 221.6 492.7C217.1 503.2 208.4 512.1 195.7 519.4L185.1 525.5V595.5L193.6 590.6C211.4 580.3 226.4 569.3 238.6 557.6C250.5 546 260.1 533.6 267.5 520.3C274.6 507.2 279.7 493.1 282.8 477.9C285.9 463.2 287.5 447.3 287.5 430.5V341.6C287.5 325.1 290.3 310.1 296 296.7C301.7 283.2 310.9 272.8 323.6 265.5L323.5 196Z" fill="url(#paint1_linear)"/>
<path opacity="0.4" d="M40.9999 483.5C53.6999 476.1 62.8999 475.9 68.5999 482.9C74.2999 489.8 77.0999 501.5 77.0999 518V606.9C77.0999 623.8 78.6999 637.8 81.7999 648.9C84.8999 660.4 90.1999 668.6 97.4999 673.4C104.6 678.3 114.2 679.6 126.4 677.3C138.3 675.1 153.2 668.9 171 658.6L179.5 653.7V583.7L168.9 589.8C156.2 597.2 147.7 598.1 143.4 592.7C138.9 587.5 136.6 576.6 136.6 560.1V481.8C136.6 461.4 134.6 445.3 130.6 433.4C126.6 421.6 118.7 414 106.8 410.6C118.7 393.5 126.6 376.8 130.6 360.4C134.6 344 136.5 325.6 136.5 305.2V226.9C136.5 210.4 138.8 197 143.3 186.5C147.5 176.2 156 167.4 168.8 160L179.4 153.9V83.8999L170.9 88.7999C153.1 99.0999 138.2 110 126.3 121.6C114.1 133.3 104.5 145.8 97.3999 158.9C89.9999 172.2 84.7999 186.4 81.6999 201.5C78.5999 216.3 76.9999 232.1 76.9999 249V337.9C76.9999 354.4 74.1999 369.4 68.4999 382.8C62.7999 396.2 53.6999 406.7 40.8999 414L40.9999 483.5Z" fill="url(#paint2_linear)"/>
<path opacity="0.4" d="M363.5 226C350.8 233.4 341.6 233.6 335.9 226.6C330.2 219.7 327.4 208 327.4 191.5V102.6C327.4 85.7 325.8 71.7 322.7 60.6C319.6 49.1 314.5 40.8 307.4 35.9C300 31.1 290.4 29.8 278.5 32C266.3 34.3 251.3 40.6 233.5 50.9L225 55.8V125.8L235.6 119.7C248.3 112.3 257 111.3 261.5 116.5C265.7 121.9 267.9 132.8 267.9 149.3V227.6C267.9 248 269.9 264.1 273.9 276C277.9 287.8 285.8 295.4 297.7 298.8C285.8 315.9 277.9 332.6 273.9 349C269.9 365.4 268 383.8 268 404.2V482.5C268 499 265.9 512.4 261.6 522.7C257.1 533.2 248.4 542.1 235.7 549.4L225.1 555.5V625.5L233.6 620.6C251.4 610.3 266.4 599.3 278.6 587.6C290.5 576 300.1 563.6 307.5 550.3C314.6 537.2 319.7 523.1 322.8 507.9C325.9 493.2 327.5 477.3 327.5 460.5V371.6C327.5 355.1 330.3 340.1 336 326.7C341.7 313.2 350.9 302.8 363.6 295.5L363.5 226Z" fill="url(#paint3_linear)"/>
<path opacity="0.15" d="M585.5 13.2002L414.6 111.9L414.7 521.2L585.6 422.5L585.5 13.2002Z" fill="url(#paint4_linear)"/>
<path d="M617.6 76.1001L481.7 154.6V192.2L617.6 113.7V76.1001Z" fill="#F2C94C"/>
<path opacity="0.15" d="M564.4 239.7L433.8 315.1V373.7L564.4 298.3V239.7Z" fill="white"/>
<path opacity="0.15" d="M564.5 168.8L433.7 244.3V257.9L564.5 182.4V168.8Z" fill="white"/>
<path opacity="0.15" d="M564.5 195.4L451.4 260.7V274.3L564.5 209V195.4Z" fill="white"/>
<path opacity="0.2" d="M585.5 13.2002L414.6 111.9V166.8L585.5 68.1002V13.2002Z" fill="url(#paint5_linear)"/>
<path opacity="0.2" d="M542.8 65.5999C542.8 73.8999 547.7 77.7999 553.7 74.3999C559.7 70.8999 564.5 61.3999 564.5 53.0999C564.5 44.7999 559.6 40.8999 553.6 44.2999C547.6 47.7999 542.8 57.2999 542.8 65.5999Z" fill="white"/>
<path opacity="0.15" d="M375.5 392.7L204.6 491.4L204.7 900.7L375.6 802L375.5 392.7Z" fill="url(#paint6_linear)"/>
<path d="M310.4 511.8L174.5 590.3V627.9L310.4 549.4V511.8Z" fill="#F2994A"/>
<path opacity="0.15" d="M354.4 550.7L223.7 626.2V684.7L354.4 609.2V550.7Z" fill="white"/>
<path opacity="0.15" d="M354.5 634.3L223.7 709.8V723.4L354.5 648V634.3Z" fill="white"/>
<path opacity="0.15" d="M354.5 658.9L241.4 724.2V737.8L354.5 672.5V658.9Z" fill="white"/>
<path opacity="0.2" d="M375.5 392.7L204.6 491.4V546.3L375.5 447.6V392.7Z" fill="url(#paint7_linear)"/>
<path opacity="0.2" d="M332.8 445.2C332.8 453.5 337.7 457.4 343.7 454C349.7 450.5 354.5 441 354.5 432.7C354.5 424.4 349.6 420.5 343.6 423.9C337.6 427.3 332.8 436.9 332.8 445.2Z" fill="white"/>
<path opacity="0.3" d="M405 449.4L702.6 277.6L702.5 432.7L431.2 589.4L405 628.3V449.4Z" fill="url(#paint8_linear)"/>
<path opacity="0.15" d="M481.5 443L546.7 405.4V419L481.5 456.6V443Z" fill="white"/>
<path opacity="0.15" d="M481.5 470.3L643 377.1V390.7L481.5 483.9V470.3Z" fill="white"/>
<path opacity="0.15" d="M481.5 497.6L676.3 385.1V398.7L481.5 511.2V497.6Z" fill="white"/>
<path d="M465.5 466.5C465.5 479.3 457.9 494 448.6 499.4C439.3 504.8 431.7 498.8 431.7 486C431.7 473.2 439.3 458.5 448.6 453.1C457.9 447.7 465.5 453.7 465.5 466.5Z" fill="#F2994A"/>
<path opacity="0.15" d="M673.2 168.8L712.6 146V132.7L673.2 155.5C670 157.4 665.3 161.1 661.3 166.9C657 173.1 653.9 180.9 653.9 189.4C653.9 198.8 656.3 204.1 660.8 205.7C665.1 207.1 670.1 204.7 673.2 202.9L689.4 193.5L689.5 193.4C690.9 192.6 693.1 191.8 694.8 192.3C696.2 192.7 697.9 194.2 697.9 199.4C697.9 204.6 696.3 207.8 694.9 209.7C693.2 212.1 691 213.8 689.6 214.5L689.4 214.6L639.8 243.2V256.5L689.1 228C692.5 226.2 697.4 222.5 701.6 216.6C706.2 210.1 709.4 201.9 709.4 192.7C709.4 183.6 706.2 178.9 701.7 177.6C697.5 176.4 692.6 178.2 689.2 180.2L673.1 189.5C670.8 190.8 669 191.4 667.9 191C667 190.7 665.4 189.4 665.4 182.7C665.4 178.3 666.8 175.5 668.2 173.5C669.8 171.3 671.9 169.5 673.2 168.8Z" fill="white"/>
<path d="M700.9 147.4C700.9 158.8 707.6 164.1 715.8 159.4C724 154.7 730.7 141.6 730.7 130.2C730.7 118.8 724 113.5 715.8 118.2C707.5 123 700.9 136.1 700.9 147.4Z" fill="#F2C94C"/>
<path d="M621.9 257.4C621.9 268.8 628.6 274.2 636.8 269.4C645 264.6 651.7 251.6 651.7 240.2C651.7 228.8 645 223.4 636.8 228.2C628.5 233 621.9 246.1 621.9 257.4Z" fill="#F2C94C"/>
<path opacity="0.2" d="M515.6 605.1C509.6 608.6 504.8 616.9 504.8 623.9V654.4L484.6 666C478.6 669.5 473.8 677.8 473.8 684.8C473.8 691.7 478.7 694.5 484.6 691.1L504.8 679.5V710C504.8 716.9 509.7 719.7 515.6 716.3C521.6 712.8 526.4 704.5 526.4 697.5V667L546.6 655.4C552.6 651.9 557.4 643.6 557.4 636.6C557.4 629.7 552.5 626.9 546.6 630.3L526.4 641.9V611.4C526.4 604.4 521.6 601.6 515.6 605.1Z" fill="url(#paint9_linear)"/>
<defs>
<linearGradient id="paint0_linear" x1="-61.9443" y1="74.1186" x2="184.686" y2="501.566" gradientUnits="userSpaceOnUse">
<stop stop-color="white"/>
<stop offset="1" stop-color="white" stop-opacity="0"/>
</linearGradient>
<linearGradient id="paint1_linear" x1="56.6436" y1="3.84694" x2="303.274" y2="431.295" gradientUnits="userSpaceOnUse">
<stop stop-color="white"/>
<stop offset="1" stop-color="white" stop-opacity="0"/>
</linearGradient>
<linearGradient id="paint2_linear" x1="-21.9439" y1="104.118" x2="224.686" y2="531.566" gradientUnits="userSpaceOnUse">
<stop stop-color="white"/>
<stop offset="1" stop-color="white" stop-opacity="0"/>
</linearGradient>
<linearGradient id="paint3_linear" x1="96.6437" y1="33.8468" x2="343.274" y2="461.295" gradientUnits="userSpaceOnUse">
<stop stop-color="white"/>
<stop offset="1" stop-color="white" stop-opacity="0"/>
</linearGradient>
<linearGradient id="paint4_linear" x1="411.469" y1="113.653" x2="574.737" y2="396.516" gradientUnits="userSpaceOnUse">
<stop stop-color="white"/>
<stop offset="1" stop-color="white" stop-opacity="0"/>
</linearGradient>
<linearGradient id="paint5_linear" x1="526.833" y1="14.0357" x2="474.82" y2="161.513" gradientUnits="userSpaceOnUse">
<stop stop-color="white"/>
<stop offset="1" stop-color="white" stop-opacity="0"/>
</linearGradient>
<linearGradient id="paint6_linear" x1="201.477" y1="493.178" x2="364.745" y2="776.042" gradientUnits="userSpaceOnUse">
<stop stop-color="white"/>
<stop offset="1" stop-color="white" stop-opacity="0"/>
</linearGradient>
<linearGradient id="paint7_linear" x1="316.841" y1="393.561" x2="264.828" y2="541.038" gradientUnits="userSpaceOnUse">
<stop stop-color="white"/>
<stop offset="1" stop-color="white" stop-opacity="0"/>
</linearGradient>
<linearGradient id="paint8_linear" x1="469.938" y1="387.332" x2="623.589" y2="507.636" gradientUnits="userSpaceOnUse">
<stop stop-color="white"/>
<stop offset="1" stop-color="white" stop-opacity="0"/>
</linearGradient>
<linearGradient id="paint9_linear" x1="494.71" y1="644.063" x2="547.083" y2="685.368" gradientUnits="userSpaceOnUse">
<stop stop-color="white"/>
<stop offset="1" stop-color="white" stop-opacity="0"/>
</linearGradient>
</defs>
</svg>
